<svg width="101" height="71" viewBox="0 0 101 71" fill="none" xmlns="http://www.w3.org/2000/svg">
<mask id="path-1-outside-1_297_2713" maskUnits="userSpaceOnUse" x="-0.5" y="-0.5" width="101" height="72" fill="black">
<rect fill="white" x="-0.5" y="-0.5" width="101" height="72"/>
<path d="M99.8527 7.32165V63.6784C99.8009 63.7802 99.7231 63.8753 99.6972 63.9816C98.6992 68.033 95.2722 70.4728 90.5257 70.4977C88.8122 70.5068 87.0987 70.4977 85.3826 70.4977C60.2557 70.4977 35.1287 70.5 9.99913 70.4977C4.45943 70.4977 0.511386 67.1661 0.506202 62.4471C0.495832 44.4786 0.495832 26.5146 0.52694 8.55063C0.52694 7.63399 0.708399 6.68113 1.03762 5.81202C2.30265 2.47135 5.68039 0.5 10.0043 0.5C36.78 0.5 63.5582 0.5 90.3339 0.5C90.5931 0.5 90.8523 0.5 91.109 0.509053C94.6837 0.669749 97.2942 2.16354 98.904 4.93611C99.3343 5.67848 99.5417 6.52044 99.8501 7.31712L99.8527 7.32165ZM18.24 67.062C18.24 63.6919 18.24 60.4124 18.24 57.1328C18.24 54.5594 18.2192 51.9838 18.2478 49.4104C18.2763 46.8958 20.0831 45.3409 22.9346 45.3341C25.0369 45.3296 27.1393 45.3319 29.239 45.3341C32.3524 45.3364 34.0918 46.8574 34.0944 49.5914C34.0996 55.08 34.0944 60.5663 34.0944 66.0548C34.0944 66.383 34.0944 66.7112 34.0944 67.0575H39.9037C39.9037 66.7067 39.9037 66.4034 39.9037 66.1001C39.9037 63.2144 39.8985 60.3286 39.9089 57.4452C39.9089 57.0242 39.9426 56.5964 40.0203 56.1822C40.2873 54.7496 41.3087 53.7673 42.6696 52.9955C41.008 49.5009 39.3722 46.0607 37.7365 42.6227C36.2408 39.4789 36.7618 37.4125 39.5563 35.0632C43.0403 32.1344 46.3196 29.0586 48.4815 25.2087C48.8211 24.6044 49.4018 24.2807 50.195 24.2807C51.0271 24.2807 51.5793 24.6315 51.9785 25.254C52.6447 26.286 53.2047 27.4064 54.0627 28.3004C56.4061 30.7425 58.8247 33.1371 61.3237 35.4593C63.3794 37.3695 64.0145 39.6374 62.8894 42.0795C62.3113 43.3356 61.7047 44.585 61.1137 45.8366C59.9861 48.2335 58.861 50.6303 57.7204 53.0498C59.8357 54.1498 60.5149 55.7929 60.4656 57.8164C60.3956 60.5867 60.4475 63.3592 60.4475 66.1318V67.0371H65.8835C65.8835 66.6614 65.8835 66.3536 65.8835 66.0435C65.8835 61.9695 65.8316 57.8956 65.925 53.8239C65.9457 52.9774 66.2672 51.9634 66.8738 51.341C67.61 50.585 67.7681 49.8653 67.7344 48.9758C67.6696 47.1901 68.5639 45.8932 70.3785 45.0535C70.6377 44.9335 70.8892 44.5714 70.9022 44.3134C70.9592 43.184 70.9151 42.0523 70.9307 40.9207C70.9462 39.798 71.6928 39.0783 72.823 39.0602C73.987 39.0421 74.7828 39.7845 74.8035 40.941C74.8243 42.0433 74.8346 43.1478 74.7958 44.25C74.7802 44.7095 74.9383 44.9471 75.4309 45.1418C76.6778 45.6352 77.5306 46.4952 77.8158 47.6631C77.9946 48.3987 77.9039 49.1818 77.9869 49.94C78.018 50.2229 78.1087 50.5783 78.3264 50.7525C79.4645 51.6624 79.8689 52.7827 79.8611 54.0977C79.8352 58.1151 79.8533 62.1302 79.8533 66.1476C79.8533 66.4487 79.8533 66.7474 79.8533 67.1073C83.4384 67.1073 86.8913 67.1118 90.3468 67.1073C93.8698 67.1028 95.9695 65.2763 95.9695 62.2117C95.9721 49.5394 95.9695 36.8671 95.9695 24.1924C95.9695 23.8937 95.9695 23.5972 95.9695 23.3007H4.38425C4.38425 23.6447 4.38425 23.948 4.38425 24.2513C4.38425 36.8671 4.38425 49.4828 4.38425 62.1008C4.38425 62.3837 4.37648 62.6667 4.39981 62.9496C4.56312 64.9956 6.42697 66.924 8.72114 67.0281C11.8422 67.1707 14.9763 67.0643 18.24 67.0643V67.062ZM4.39721 19.7948H95.9565C95.9565 15.8272 95.9565 11.923 95.9539 8.02102C95.9539 7.88069 95.9202 7.74037 95.8891 7.6023C95.3655 5.26882 93.3228 3.89498 90.3417 3.89498C63.5634 3.89498 36.7878 3.89498 10.0095 3.89498C9.75027 3.89498 9.49104 3.89498 9.23441 3.9063C6.70175 4.00815 4.47757 5.8007 4.42314 8.02328C4.32981 11.923 4.39721 15.8272 4.39721 19.7971V19.7948ZM48.2378 52.4478C48.2378 49.7069 48.2301 46.9954 48.243 44.2862C48.2482 43.1206 49.0311 42.3986 50.2158 42.4167C51.3564 42.4326 52.1029 43.141 52.1133 44.2681C52.1289 46.3028 52.1185 48.3398 52.1185 50.3746C52.1185 51.0739 52.1185 51.7755 52.1185 52.5949C52.8443 52.3957 53.6116 52.9095 54.0238 52.02C55.7684 48.2538 57.5571 44.5012 59.3198 40.7419C59.8305 39.6532 59.5713 38.7026 58.5966 37.8901C57.7774 37.2066 56.9298 36.5457 56.1832 35.8056C54.1379 33.7776 52.1418 31.7135 50.1017 29.6403C50.0913 29.6516 49.9747 29.7421 49.8891 29.853C47.6287 32.7704 44.9016 35.3303 41.9775 37.7407C40.6943 38.7977 40.4973 39.5876 41.1687 41.0021C42.8407 44.5216 44.5594 48.023 46.164 51.5651C46.5788 52.4794 47.1258 52.7442 48.2404 52.4523L48.2378 52.4478ZM56.572 67.0779V66.245C56.572 63.3343 56.572 60.426 56.572 57.5153C56.572 56.2501 56.2402 55.9468 54.8196 55.9446C51.7193 55.9378 48.6189 55.9378 45.5186 55.9446C44.1369 55.9468 43.7869 56.2547 43.7843 57.4452C43.7791 60.4124 43.7817 63.3773 43.7843 66.3446C43.7843 66.5867 43.8206 66.8266 43.8413 67.0801H56.5694L56.572 67.0779ZM30.2137 67.0665C30.2137 66.0684 30.2137 65.1676 30.2137 64.2646C30.2137 59.4029 30.2137 54.5391 30.2137 49.6775C30.2137 49.1773 30.263 48.7065 29.4075 48.7155C27.243 48.7404 25.0758 48.7042 22.9139 48.7495C22.6469 48.754 22.201 49.0731 22.1647 49.2859C22.0636 49.9128 22.1284 50.5601 22.1284 51.255C23.0461 51.255 23.8186 51.2459 24.5911 51.255C25.9365 51.2731 26.8075 51.9272 26.823 52.9163C26.8412 53.937 25.9417 54.6251 24.5496 54.6432C23.7797 54.6522 23.0098 54.6432 22.2036 54.6432V56.7368C23.1264 56.7368 23.9637 56.7119 24.801 56.7435C25.9909 56.7865 26.8127 57.4927 26.823 58.4297C26.8334 59.3962 25.9754 60.1 24.7311 60.1249C23.9015 60.1408 23.0694 60.1272 22.201 60.1272V62.2593C23.0539 62.2593 23.8238 62.2479 24.5963 62.2615C25.9546 62.2864 26.8127 62.936 26.8256 63.9273C26.8412 64.9481 25.952 65.6248 24.547 65.6474C23.7797 65.6588 23.0098 65.6474 22.1932 65.6474V67.0575H30.2137V67.0665ZM75.9727 67.062C75.9727 62.6033 75.9675 58.2509 75.9804 53.8985C75.9804 53.378 75.672 53.301 75.182 53.3033C73.694 53.3169 72.2061 53.3463 70.7207 53.292C69.9197 53.2626 69.746 53.5228 69.7512 54.1724C69.7797 58.2441 69.7641 62.3181 69.7693 66.3898C69.7693 66.6071 69.8082 66.8244 69.8316 67.062H75.9727ZM74.1969 49.8721C74.0596 49.2836 74.1244 48.4937 73.7718 48.3059C73.2974 48.0524 72.3538 48.0705 71.8898 48.3398C71.5502 48.5367 71.6591 49.3244 71.5632 49.8721H74.1969Z"/>
</mask>
<path d="M99.8527 7.32165V63.6784C99.8009 63.7802 99.7231 63.8753 99.6972 63.9816C98.6992 68.033 95.2722 70.4728 90.5257 70.4977C88.8122 70.5068 87.0987 70.4977 85.3826 70.4977C60.2557 70.4977 35.1287 70.5 9.99913 70.4977C4.45943 70.4977 0.511386 67.1661 0.506202 62.4471C0.495832 44.4786 0.495832 26.5146 0.52694 8.55063C0.52694 7.63399 0.708399 6.68113 1.03762 5.81202C2.30265 2.47135 5.68039 0.5 10.0043 0.5C36.78 0.5 63.5582 0.5 90.3339 0.5C90.5931 0.5 90.8523 0.5 91.109 0.509053C94.6837 0.669749 97.2942 2.16354 98.904 4.93611C99.3343 5.67848 99.5417 6.52044 99.8501 7.31712L99.8527 7.32165ZM18.24 67.062C18.24 63.6919 18.24 60.4124 18.24 57.1328C18.24 54.5594 18.2192 51.9838 18.2478 49.4104C18.2763 46.8958 20.0831 45.3409 22.9346 45.3341C25.0369 45.3296 27.1393 45.3319 29.239 45.3341C32.3524 45.3364 34.0918 46.8574 34.0944 49.5914C34.0996 55.08 34.0944 60.5663 34.0944 66.0548C34.0944 66.383 34.0944 66.7112 34.0944 67.0575H39.9037C39.9037 66.7067 39.9037 66.4034 39.9037 66.1001C39.9037 63.2144 39.8985 60.3286 39.9089 57.4452C39.9089 57.0242 39.9426 56.5964 40.0203 56.1822C40.2873 54.7496 41.3087 53.7673 42.6696 52.9955C41.008 49.5009 39.3722 46.0607 37.7365 42.6227C36.2408 39.4789 36.7618 37.4125 39.5563 35.0632C43.0403 32.1344 46.3196 29.0586 48.4815 25.2087C48.8211 24.6044 49.4018 24.2807 50.195 24.2807C51.0271 24.2807 51.5793 24.6315 51.9785 25.254C52.6447 26.286 53.2047 27.4064 54.0627 28.3004C56.4061 30.7425 58.8247 33.1371 61.3237 35.4593C63.3794 37.3695 64.0145 39.6374 62.8894 42.0795C62.3113 43.3356 61.7047 44.585 61.1137 45.8366C59.9861 48.2335 58.861 50.6303 57.7204 53.0498C59.8357 54.1498 60.5149 55.7929 60.4656 57.8164C60.3956 60.5867 60.4475 63.3592 60.4475 66.1318V67.0371H65.8835C65.8835 66.6614 65.8835 66.3536 65.8835 66.0435C65.8835 61.9695 65.8316 57.8956 65.925 53.8239C65.9457 52.9774 66.2672 51.9634 66.8738 51.341C67.61 50.585 67.7681 49.8653 67.7344 48.9758C67.6696 47.1901 68.5639 45.8932 70.3785 45.0535C70.6377 44.9335 70.8892 44.5714 70.9022 44.3134C70.9592 43.184 70.9151 42.0523 70.9307 40.9207C70.9462 39.798 71.6928 39.0783 72.823 39.0602C73.987 39.0421 74.7828 39.7845 74.8035 40.941C74.8243 42.0433 74.8346 43.1478 74.7958 44.25C74.7802 44.7095 74.9383 44.9471 75.4309 45.1418C76.6778 45.6352 77.5306 46.4952 77.8158 47.6631C77.9946 48.3987 77.9039 49.1818 77.9869 49.94C78.018 50.2229 78.1087 50.5783 78.3264 50.7525C79.4645 51.6624 79.8689 52.7827 79.8611 54.0977C79.8352 58.1151 79.8533 62.1302 79.8533 66.1476C79.8533 66.4487 79.8533 66.7474 79.8533 67.1073C83.4384 67.1073 86.8913 67.1118 90.3468 67.1073C93.8698 67.1028 95.9695 65.2763 95.9695 62.2117C95.9721 49.5394 95.9695 36.8671 95.9695 24.1924C95.9695 23.8937 95.9695 23.5972 95.9695 23.3007H4.38425C4.38425 23.6447 4.38425 23.948 4.38425 24.2513C4.38425 36.8671 4.38425 49.4828 4.38425 62.1008C4.38425 62.3837 4.37648 62.6667 4.39981 62.9496C4.56312 64.9956 6.42697 66.924 8.72114 67.0281C11.8422 67.1707 14.9763 67.0643 18.24 67.0643V67.062ZM4.39721 19.7948H95.9565C95.9565 15.8272 95.9565 11.923 95.9539 8.02102C95.9539 7.88069 95.9202 7.74037 95.8891 7.6023C95.3655 5.26882 93.3228 3.89498 90.3417 3.89498C63.5634 3.89498 36.7878 3.89498 10.0095 3.89498C9.75027 3.89498 9.49104 3.89498 9.23441 3.9063C6.70175 4.00815 4.47757 5.8007 4.42314 8.02328C4.32981 11.923 4.39721 15.8272 4.39721 19.7971V19.7948ZM48.2378 52.4478C48.2378 49.7069 48.2301 46.9954 48.243 44.2862C48.2482 43.1206 49.0311 42.3986 50.2158 42.4167C51.3564 42.4326 52.1029 43.141 52.1133 44.2681C52.1289 46.3028 52.1185 48.3398 52.1185 50.3746C52.1185 51.0739 52.1185 51.7755 52.1185 52.5949C52.8443 52.3957 53.6116 52.9095 54.0238 52.02C55.7684 48.2538 57.5571 44.5012 59.3198 40.7419C59.8305 39.6532 59.5713 38.7026 58.5966 37.8901C57.7774 37.2066 56.9298 36.5457 56.1832 35.8056C54.1379 33.7776 52.1418 31.7135 50.1017 29.6403C50.0913 29.6516 49.9747 29.7421 49.8891 29.853C47.6287 32.7704 44.9016 35.3303 41.9775 37.7407C40.6943 38.7977 40.4973 39.5876 41.1687 41.0021C42.8407 44.5216 44.5594 48.023 46.164 51.5651C46.5788 52.4794 47.1258 52.7442 48.2404 52.4523L48.2378 52.4478ZM56.572 67.0779V66.245C56.572 63.3343 56.572 60.426 56.572 57.5153C56.572 56.2501 56.2402 55.9468 54.8196 55.9446C51.7193 55.9378 48.6189 55.9378 45.5186 55.9446C44.1369 55.9468 43.7869 56.2547 43.7843 57.4452C43.7791 60.4124 43.7817 63.3773 43.7843 66.3446C43.7843 66.5867 43.8206 66.8266 43.8413 67.0801H56.5694L56.572 67.0779ZM30.2137 67.0665C30.2137 66.0684 30.2137 65.1676 30.2137 64.2646C30.2137 59.4029 30.2137 54.5391 30.2137 49.6775C30.2137 49.1773 30.263 48.7065 29.4075 48.7155C27.243 48.7404 25.0758 48.7042 22.9139 48.7495C22.6469 48.754 22.201 49.0731 22.1647 49.2859C22.0636 49.9128 22.1284 50.5601 22.1284 51.255C23.0461 51.255 23.8186 51.2459 24.5911 51.255C25.9365 51.2731 26.8075 51.9272 26.823 52.9163C26.8412 53.937 25.9417 54.6251 24.5496 54.6432C23.7797 54.6522 23.0098 54.6432 22.2036 54.6432V56.7368C23.1264 56.7368 23.9637 56.7119 24.801 56.7435C25.9909 56.7865 26.8127 57.4927 26.823 58.4297C26.8334 59.3962 25.9754 60.1 24.7311 60.1249C23.9015 60.1408 23.0694 60.1272 22.201 60.1272V62.2593C23.0539 62.2593 23.8238 62.2479 24.5963 62.2615C25.9546 62.2864 26.8127 62.936 26.8256 63.9273C26.8412 64.9481 25.952 65.6248 24.547 65.6474C23.7797 65.6588 23.0098 65.6474 22.1932 65.6474V67.0575H30.2137V67.0665ZM75.9727 67.062C75.9727 62.6033 75.9675 58.2509 75.9804 53.8985C75.9804 53.378 75.672 53.301 75.182 53.3033C73.694 53.3169 72.2061 53.3463 70.7207 53.292C69.9197 53.2626 69.746 53.5228 69.7512 54.1724C69.7797 58.2441 69.7641 62.3181 69.7693 66.3898C69.7693 66.6071 69.8082 66.8244 69.8316 67.062H75.9727ZM74.1969 49.8721C74.0596 49.2836 74.1244 48.4937 73.7718 48.3059C73.2974 48.0524 72.3538 48.0705 71.8898 48.3398C71.5502 48.5367 71.6591 49.3244 71.5632 49.8721H74.1969Z" fill="#3B74BF"/>
<path d="M99.8527 7.32165V63.6784C99.8009 63.7802 99.7231 63.8753 99.6972 63.9816C98.6992 68.033 95.2722 70.4728 90.5257 70.4977C88.8122 70.5068 87.0987 70.4977 85.3826 70.4977C60.2557 70.4977 35.1287 70.5 9.99913 70.4977C4.45943 70.4977 0.511386 67.1661 0.506202 62.4471C0.495832 44.4786 0.495832 26.5146 0.52694 8.55063C0.52694 7.63399 0.708399 6.68113 1.03762 5.81202C2.30265 2.47135 5.68039 0.5 10.0043 0.5C36.78 0.5 63.5582 0.5 90.3339 0.5C90.5931 0.5 90.8523 0.5 91.109 0.509053C94.6837 0.669749 97.2942 2.16354 98.904 4.93611C99.3343 5.67848 99.5417 6.52044 99.8501 7.31712L99.8527 7.32165ZM18.24 67.062C18.24 63.6919 18.24 60.4124 18.24 57.1328C18.24 54.5594 18.2192 51.9838 18.2478 49.4104C18.2763 46.8958 20.0831 45.3409 22.9346 45.3341C25.0369 45.3296 27.1393 45.3319 29.239 45.3341C32.3524 45.3364 34.0918 46.8574 34.0944 49.5914C34.0996 55.08 34.0944 60.5663 34.0944 66.0548C34.0944 66.383 34.0944 66.7112 34.0944 67.0575H39.9037C39.9037 66.7067 39.9037 66.4034 39.9037 66.1001C39.9037 63.2144 39.8985 60.3286 39.9089 57.4452C39.9089 57.0242 39.9426 56.5964 40.0203 56.1822C40.2873 54.7496 41.3087 53.7673 42.6696 52.9955C41.008 49.5009 39.3722 46.0607 37.7365 42.6227C36.2408 39.4789 36.7618 37.4125 39.5563 35.0632C43.0403 32.1344 46.3196 29.0586 48.4815 25.2087C48.8211 24.6044 49.4018 24.2807 50.195 24.2807C51.0271 24.2807 51.5793 24.6315 51.9785 25.254C52.6447 26.286 53.2047 27.4064 54.0627 28.3004C56.4061 30.7425 58.8247 33.1371 61.3237 35.4593C63.3794 37.3695 64.0145 39.6374 62.8894 42.0795C62.3113 43.3356 61.7047 44.585 61.1137 45.8366C59.9861 48.2335 58.861 50.6303 57.7204 53.0498C59.8357 54.1498 60.5149 55.7929 60.4656 57.8164C60.3956 60.5867 60.4475 63.3592 60.4475 66.1318V67.0371H65.8835C65.8835 66.6614 65.8835 66.3536 65.8835 66.0435C65.8835 61.9695 65.8316 57.8956 65.925 53.8239C65.9457 52.9774 66.2672 51.9634 66.8738 51.341C67.61 50.585 67.7681 49.8653 67.7344 48.9758C67.6696 47.1901 68.5639 45.8932 70.3785 45.0535C70.6377 44.9335 70.8892 44.5714 70.9022 44.3134C70.9592 43.184 70.9151 42.0523 70.9307 40.9207C70.9462 39.798 71.6928 39.0783 72.823 39.0602C73.987 39.0421 74.7828 39.7845 74.8035 40.941C74.8243 42.0433 74.8346 43.1478 74.7958 44.25C74.7802 44.7095 74.9383 44.9471 75.4309 45.1418C76.6778 45.6352 77.5306 46.4952 77.8158 47.6631C77.9946 48.3987 77.9039 49.1818 77.9869 49.94C78.018 50.2229 78.1087 50.5783 78.3264 50.7525C79.4645 51.6624 79.8689 52.7827 79.8611 54.0977C79.8352 58.1151 79.8533 62.1302 79.8533 66.1476C79.8533 66.4487 79.8533 66.7474 79.8533 67.1073C83.4384 67.1073 86.8913 67.1118 90.3468 67.1073C93.8698 67.1028 95.9695 65.2763 95.9695 62.2117C95.9721 49.5394 95.9695 36.8671 95.9695 24.1924C95.9695 23.8937 95.9695 23.5972 95.9695 23.3007H4.38425C4.38425 23.6447 4.38425 23.948 4.38425 24.2513C4.38425 36.8671 4.38425 49.4828 4.38425 62.1008C4.38425 62.3837 4.37648 62.6667 4.39981 62.9496C4.56312 64.9956 6.42697 66.924 8.72114 67.0281C11.8422 67.1707 14.9763 67.0643 18.24 67.0643V67.062ZM4.39721 19.7948H95.9565C95.9565 15.8272 95.9565 11.923 95.9539 8.02102C95.9539 7.88069 95.9202 7.74037 95.8891 7.6023C95.3655 5.26882 93.3228 3.89498 90.3417 3.89498C63.5634 3.89498 36.7878 3.89498 10.0095 3.89498C9.75027 3.89498 9.49104 3.89498 9.23441 3.9063C6.70175 4.00815 4.47757 5.8007 4.42314 8.02328C4.32981 11.923 4.39721 15.8272 4.39721 19.7971V19.7948ZM48.2378 52.4478C48.2378 49.7069 48.2301 46.9954 48.243 44.2862C48.2482 43.1206 49.0311 42.3986 50.2158 42.4167C51.3564 42.4326 52.1029 43.141 52.1133 44.2681C52.1289 46.3028 52.1185 48.3398 52.1185 50.3746C52.1185 51.0739 52.1185 51.7755 52.1185 52.5949C52.8443 52.3957 53.6116 52.9095 54.0238 52.02C55.7684 48.2538 57.5571 44.5012 59.3198 40.7419C59.8305 39.6532 59.5713 38.7026 58.5966 37.8901C57.7774 37.2066 56.9298 36.5457 56.1832 35.8056C54.1379 33.7776 52.1418 31.7135 50.1017 29.6403C50.0913 29.6516 49.9747 29.7421 49.8891 29.853C47.6287 32.7704 44.9016 35.3303 41.9775 37.7407C40.6943 38.7977 40.4973 39.5876 41.1687 41.0021C42.8407 44.5216 44.5594 48.023 46.164 51.5651C46.5788 52.4794 47.1258 52.7442 48.2404 52.4523L48.2378 52.4478ZM56.572 67.0779V66.245C56.572 63.3343 56.572 60.426 56.572 57.5153C56.572 56.2501 56.2402 55.9468 54.8196 55.9446C51.7193 55.9378 48.6189 55.9378 45.5186 55.9446C44.1369 55.9468 43.7869 56.2547 43.7843 57.4452C43.7791 60.4124 43.7817 63.3773 43.7843 66.3446C43.7843 66.5867 43.8206 66.8266 43.8413 67.0801H56.5694L56.572 67.0779ZM30.2137 67.0665C30.2137 66.0684 30.2137 65.1676 30.2137 64.2646C30.2137 59.4029 30.2137 54.5391 30.2137 49.6775C30.2137 49.1773 30.263 48.7065 29.4075 48.7155C27.243 48.7404 25.0758 48.7042 22.9139 48.7495C22.6469 48.754 22.201 49.0731 22.1647 49.2859C22.0636 49.9128 22.1284 50.5601 22.1284 51.255C23.0461 51.255 23.8186 51.2459 24.5911 51.255C25.9365 51.2731 26.8075 51.9272 26.823 52.9163C26.8412 53.937 25.9417 54.6251 24.5496 54.6432C23.7797 54.6522 23.0098 54.6432 22.2036 54.6432V56.7368C23.1264 56.7368 23.9637 56.7119 24.801 56.7435C25.9909 56.7865 26.8127 57.4927 26.823 58.4297C26.8334 59.3962 25.9754 60.1 24.7311 60.1249C23.9015 60.1408 23.0694 60.1272 22.201 60.1272V62.2593C23.0539 62.2593 23.8238 62.2479 24.5963 62.2615C25.9546 62.2864 26.8127 62.936 26.8256 63.9273C26.8412 64.9481 25.952 65.6248 24.547 65.6474C23.7797 65.6588 23.0098 65.6474 22.1932 65.6474V67.0575H30.2137V67.0665ZM75.9727 67.062C75.9727 62.6033 75.9675 58.2509 75.9804 53.8985C75.9804 53.378 75.672 53.301 75.182 53.3033C73.694 53.3169 72.2061 53.3463 70.7207 53.292C69.9197 53.2626 69.746 53.5228 69.7512 54.1724C69.7797 58.2441 69.7641 62.3181 69.7693 66.3898C69.7693 66.6071 69.8082 66.8244 69.8316 67.062H75.9727ZM74.1969 49.8721C74.0596 49.2836 74.1244 48.4937 73.7718 48.3059C73.2974 48.0524 72.3538 48.0705 71.8898 48.3398C71.5502 48.5367 71.6591 49.3244 71.5632 49.8721H74.1969Z" stroke="#3B74BF" mask="url(#path-1-outside-1_297_2713)"/>
</svg>
